<svg xmlns="http://www.w3.org/2000/svg" viewBox="0 0 24 24">
  <defs>
    <linearGradient id="gradient" x1="0%" y1="0%" x2="100%" y2="100%">
      <stop offset="0%" stop-color="#ffffff" stop-opacity="1" />
      <stop offset="100%" stop-color="#e0e0e0" stop-opacity="1" />
    </linearGradient>
    <linearGradient id="greenGradient" x1="0%" y1="0%" x2="100%" y2="100%">
      <stop offset="0%" stop-color="#1a5e1a" stop-opacity="1" />
      <stop offset="50%" stop-color="#3c8c3c" stop-opacity="1" />
      <stop offset="100%" stop-color="#53a653" stop-opacity="1" />
    </linearGradient>
    <filter id="shadow" x="-20%" y="-20%" width="140%" height="140%">
      <feDropShadow dx="0" dy="1" stdDeviation="1" flood-color="#000000" flood-opacity="0.3"/>
    </filter>
  </defs>
  <path filter="url(#shadow)" fill="url(#gradient)" d="M12,2L1,21h22L12,2z M12,6.8l6,10.4H6L12,6.8z" />
  <circle cx="12" cy<svg xmlns="http://www.w3.org/2000/svg" viewBox="0 0 24 24">
  <defs>
    <linearGradient id="gradient" x1="0%" y1="0%" x2="100%" y2="100%">
      <stop offset="0%" stop-color="#ffffff" stop-opacity="1" />
      <stop offset="100%" stop-color="#e0e0e0" stop-opacity="1" />
    </linearGradient>
  </defs>
  <path fill="url(#gradient)" d="M12,2L1,21h22L12,2z M12,6.8l6,10.4H6L12,6.8z" />
  <path fill="#ffffff" d="M12,12m-3,0a3,3 0 1,0 6,0a3,3 0 1,0 -6,0" />
  <path fill="#43a047" d="M12,15L9,9h6L12,15z" />
</svg>